<svg xmlns="http://www.w3.org/2000/svg" xmlns:xlink="http://www.w3.org/1999/xlink" viewBox="0 0 547.97 148.82"><defs><style>.cls-1,.cls-11,.cls-12,.cls-14,.cls-15,.cls-16,.cls-17,.cls-19,.cls-2,.cls-22,.cls-23,.cls-24,.cls-25,.cls-26,.cls-27,.cls-4,.cls-5,.cls-8{fill:none;}.cls-11,.cls-2,.cls-23,.cls-27{stroke:#1d1d1b;}.cls-11,.cls-12,.cls-14,.cls-15,.cls-16,.cls-17,.cls-19,.cls-2,.cls-22,.cls-23,.cls-24,.cls-25,.cls-26,.cls-27,.cls-3,.cls-4,.cls-5,.cls-8{stroke-miterlimit:10;}.cls-2,.cls-3,.cls-4,.cls-5,.cls-8{stroke-width:0.5px;}.cls-10,.cls-3{fill:#f18413;}.cls-15,.cls-19,.cls-22,.cls-3,.cls-8{stroke:#1f9ebc;}.cls-16,.cls-25,.cls-4{stroke:#fab613;}.cls-14,.cls-24,.cls-5{stroke:#8ecae6;}.cls-6{font-size:11px;font-family:Jost-SemiBold, Jost;font-weight:600;}.cls-20,.cls-6{fill:#1d1d1b;}.cls-7{fill:#8ecae6;}.cls-9{fill:#1f9ebc;}.cls-12,.cls-26{stroke:#f18413;}.cls-12,.cls-19{stroke-width:1.25px;}.cls-13{clip-path:url(#clip-path);}.cls-14,.cls-15,.cls-16{stroke-width:0.33px;}.cls-17{stroke:#010101;}.cls-18{clip-path:url(#clip-path-2);}.cls-20{font-size:7px;font-family:ArialMT, Arial;}.cls-21{letter-spacing:-0.02em;}.cls-22,.cls-23,.cls-24,.cls-25,.cls-26{stroke-width:2px;}.cls-27{stroke-width:0.25px;}</style><clipPath id="clip-path" transform="translate(-2.96 1.97)"><rect class="cls-1" x="297.41" y="2.29" width="107.89" height="121.53"/></clipPath><clipPath id="clip-path-2" transform="translate(-2.96 1.97)"><rect class="cls-1" x="425.41" y="2.29" width="107.89" height="121.53"/></clipPath></defs><g id="a"><path class="cls-2" d="M104.38,122.36" transform="translate(-2.96 1.97)"/><path class="cls-2" d="M32.46,33.93" transform="translate(-2.96 1.97)"/><path class="cls-2" d="M104.38,122.36" transform="translate(-2.96 1.97)"/><path class="cls-3" d="M82.21,21.58Q88.06,48.19,93.92,74.8" transform="translate(-2.96 1.97)"/><path class="cls-4" d="M93.92,74.8l10.46,47.56" transform="translate(-2.96 1.97)"/><path class="cls-2" d="M82.21,21.58" transform="translate(-2.96 1.97)"/><line class="cls-5" x1="43.81" y1="76.57" x2="103.5" y2="28.11"/><line class="cls-5" x1="90.91" y1="76.57" x2="103.5" y2="28.11"/><text class="cls-6" transform="translate(0.09 12.03)">a)</text><circle class="cls-7" cx="103.5" cy="28.11" r="2.96"/><line class="cls-4" x1="43.81" y1="76.57" x2="101.41" y2="124.33"/><path class="cls-2" d="M104.38,122.36" transform="translate(-2.96 1.97)"/><line class="cls-3" x1="12.84" y1="50.9" x2="43.81" y2="76.57"/><polyline class="cls-8" points="19.56 45.16 0.46 42.93 9.73 59.2"/><ellipse class="cls-9" cx="15.81" cy="48.93" rx="7.24" ry="1.67" transform="translate(-36.3 35.79) rotate(-55.01)"/><circle class="cls-10" cx="101.41" cy="124.33" r="2.96"/><line class="cls-11" x1="19.18" y1="76.57" x2="124.88" y2="76.57"/><polyline class="cls-8" points="87.89 24.63 76.14 9.41 70.98 27.41"/><ellipse class="cls-9" cx="82.06" cy="21.86" rx="7.24" ry="1.67" transform="translate(-5.43 15.59) rotate(-9.35)"/></g><g id="b"><line class="cls-4" x1="203.14" y1="76.57" x2="222.1" y2="92.13"/><line class="cls-8" x1="171.84" y1="50.9" x2="203.14" y2="76.57"/><path class="cls-12" d="M175.92,82.26s15.54-1.36,25.89,0c13.66,1.8,21.05,6.26,27,10.53,12.21,8.82,10.41,18.49,10.41,18.49s2.52-9.84,19.42-14.81" transform="translate(-2.96 1.97)"/><polyline class="cls-8" points="230.89 24.63 219.14 9.41 213.98 27.41"/><path class="cls-2" d="M247.38,122.36" transform="translate(-2.96 1.97)"/><path class="cls-2" d="M175.46,33.93" transform="translate(-2.96 1.97)"/><path class="cls-2" d="M247.38,122.36" transform="translate(-2.96 1.97)"/><line class="cls-8" x1="222.25" y1="23.55" x2="230.5" y2="77.68"/><line class="cls-4" x1="230.5" y1="77.68" x2="234.6" y2="104.54"/><line class="cls-5" x1="230.71" y1="77.71" x2="251.18" y2="30.38"/><line class="cls-5" x1="203.14" y1="76.57" x2="251.18" y2="30.38"/><text class="cls-6" transform="translate(143.09 12.03)">b)</text><path class="cls-11" d="M169.32,81.22a151.3,151.3,0,0,1,45.14-6.62c19,0,36.72,3.24,51.44,8.8" transform="translate(-2.96 1.97)"/><circle class="cls-7" cx="251.18" cy="30.38" r="2.96"/><circle class="cls-10" cx="222.1" cy="92.13" r="2.96"/><circle class="cls-10" cx="234.6" cy="104.54" r="2.96"/><path class="cls-2" d="M191.46,33.93" transform="translate(-2.96 1.97)"/><polyline class="cls-8" points="178.56 45.16 159.46 42.93 168.73 59.2"/><ellipse class="cls-9" cx="174.81" cy="48.93" rx="7.24" ry="1.67" transform="translate(31.51 166.04) rotate(-55.01)"/><ellipse class="cls-9" cx="225.06" cy="21.86" rx="7.24" ry="1.67" transform="translate(-3.53 38.82) rotate(-9.35)"/></g><g id="c"><text class="cls-6" transform="translate(281.09 12.03)">c)</text><g class="cls-13"><g id="primary_rays" data-name="primary rays"><path class="cls-14" d="M350.35,16v61" transform="translate(-2.96 1.97)"/><path class="cls-14" d="M350.35,16,354,77.06" transform="translate(-2.96 1.97)"/><path class="cls-14" d="M350.35,16l7.32,61.38" transform="translate(-2.96 1.97)"/><path class="cls-14" d="M350.35,16l11.11,61.82" transform="translate(-2.96 1.97)"/><path class="cls-14" d="M350.35,16l15.09,62.44" transform="translate(-2.96 1.97)"/><path class="cls-14" d="M350.35,16l19.34,63.31" transform="translate(-2.96 1.97)"/><path class="cls-14" d="M350.35,16l24,64.5" transform="translate(-2.96 1.97)"/><path class="cls-14" d="M350.35,16l29.14,66.13" transform="translate(-2.96 1.97)"/><path class="cls-14" d="M350.35,16l35.14,68.46" transform="translate(-2.96 1.97)"/><path class="cls-14" d="M350.35,16,392.9,88" transform="translate(-2.96 1.97)"/><path class="cls-14" d="M350.35,16,308.94,86.07" transform="translate(-2.96 1.97)"/><path class="cls-14" d="M350.35,16,315.91,83.07" transform="translate(-2.96 1.97)"/><path class="cls-14" d="M350.35,16,321.67,81.07" transform="translate(-2.96 1.97)"/><path class="cls-14" d="M350.35,16,326.69,79.67" transform="translate(-2.96 1.97)"/><path class="cls-14" d="M350.35,16,331.2,78.66" transform="translate(-2.96 1.97)"/><path class="cls-14" d="M350.35,16l-15,62" transform="translate(-2.96 1.97)"/><path class="cls-14" d="M350.35,16,339.3,77.44" transform="translate(-2.96 1.97)"/><path class="cls-14" d="M350.35,16l-7.28,61.17" transform="translate(-2.96 1.97)"/><path class="cls-14" d="M350.35,16l-3.62,61" transform="translate(-2.96 1.97)"/></g><g id="reflected_rays" data-name="reflected rays"><path class="cls-15" d="M350.35,76.94l2.24-78.82" transform="translate(-2.96 1.97)"/><path class="cls-15" d="M354,77.06,367.22-1.88" transform="translate(-2.96 1.97)"/><path class="cls-15" d="M357.67,77.33l25-79.21" transform="translate(-2.96 1.97)"/><path class="cls-15" d="M361.46,77.77l38.2-79.65" transform="translate(-2.96 1.97)"/><path class="cls-15" d="M365.44,78.39,419.61-1.88" transform="translate(-2.96 1.97)"/><path class="cls-15" d="M369.69,79.26l53.19-57.5" transform="translate(-2.96 1.97)"/><path class="cls-15" d="M374.31,80.45l48.57-37.84" transform="translate(-2.96 1.97)"/><path class="cls-15" d="M379.49,82.08,422.88,59.2" transform="translate(-2.96 1.97)"/><path class="cls-15" d="M385.49,84.41l37.39-11" transform="translate(-2.96 1.97)"/><path class="cls-15" d="M392.9,88l30-1.48" transform="translate(-2.96 1.97)"/><path class="cls-15" d="M308.94,86.07,273.16,81" transform="translate(-2.96 1.97)"/><path class="cls-15" d="M315.91,83.07,273.16,66.78" transform="translate(-2.96 1.97)"/><path class="cls-15" d="M321.67,81.07,273.16,51" transform="translate(-2.96 1.97)"/><path class="cls-15" d="M326.69,79.67,273.16,32.05" transform="translate(-2.96 1.97)"/><path class="cls-15" d="M331.2,78.66l-58-71.13" transform="translate(-2.96 1.97)"/><path class="cls-15" d="M335.37,77.94,288.21-1.88" transform="translate(-2.96 1.97)"/><path class="cls-15" d="M339.3,77.44,306.81-1.88" transform="translate(-2.96 1.97)"/><path class="cls-15" d="M343.07,77.12l-20-79" transform="translate(-2.96 1.97)"/><path class="cls-15" d="M346.73,77,338.09-1.88" transform="translate(-2.96 1.97)"/></g><g id="virtual_rays" data-name="virtual rays"><path class="cls-16" d="M350.35,76.94l-1.71,60.49" transform="translate(-2.96 1.97)"/><path class="cls-16" d="M354,77.06l-10.12,60.37" transform="translate(-2.96 1.97)"/><path class="cls-16" d="M357.67,77.33l-18.94,60.1" transform="translate(-2.96 1.97)"/><path class="cls-16" d="M361.46,77.77l-28.61,59.66" transform="translate(-2.96 1.97)"/><path class="cls-16" d="M365.44,78.39l-39.83,59" transform="translate(-2.96 1.97)"/><path class="cls-16" d="M369.69,79.26l-53.8,58.16" transform="translate(-2.96 1.97)"/><path class="cls-16" d="M374.31,80.45l-73.15,57" transform="translate(-2.96 1.97)"/><path class="cls-16" d="M379.49,82.08l-105,55.35" transform="translate(-2.96 1.97)"/><path class="cls-16" d="M385.49,84.41,273.16,117.52" transform="translate(-2.96 1.97)"/><path class="cls-16" d="M392.9,88,273.16,93.92" transform="translate(-2.96 1.97)"/><path class="cls-16" d="M308.94,86.07l113.94,16.14" transform="translate(-2.96 1.97)"/><path class="cls-16" d="M315.91,83.07l107,40.75" transform="translate(-2.96 1.97)"/><path class="cls-16" d="M321.67,81.07l90.87,56.36" transform="translate(-2.96 1.97)"/><path class="cls-16" d="M326.69,79.67l64.93,57.76" transform="translate(-2.96 1.97)"/><path class="cls-16" d="M331.2,78.66l48,58.77" transform="translate(-2.96 1.97)"/><path class="cls-16" d="M335.37,77.94l35.15,59.49" transform="translate(-2.96 1.97)"/><path class="cls-16" d="M339.3,77.44l24.57,60" transform="translate(-2.96 1.97)"/><path class="cls-16" d="M343.07,77.12l15.25,60.31" transform="translate(-2.96 1.97)"/><path class="cls-16" d="M346.73,77l6.63,60.47" transform="translate(-2.96 1.97)"/></g><path id="reflector" class="cls-17" d="M306,87.57a92.5,92.5,0,0,1,89.59,1.9" transform="translate(-2.96 1.97)"/><path class="cls-12" d="M320.59,88c25.6,1.49,29.06,13.82,29.06,13.82s2.94-12.33,29.51-13.48" transform="translate(-2.96 1.97)"/></g><circle class="cls-7" cx="347.44" cy="17.93" r="2.96"/></g><g id="d"><text class="cls-6" transform="translate(410.09 12.03)">d)</text><g class="cls-18"><g id="reflected_rays-2" data-name="reflected rays"><path class="cls-15" d="M480.59-1.88" transform="translate(-2.96 1.97)"/><path class="cls-15" d="M478.35,76.94l1.15-40.42" transform="translate(-2.96 1.97)"/><path class="cls-15" d="M495.22-1.88" transform="translate(-2.96 1.97)"/><path class="cls-15" d="M482,77.06l6.71-40" transform="translate(-2.96 1.97)"/><path class="cls-15" d="M510.63-1.88" transform="translate(-2.96 1.97)"/><path class="cls-15" d="M485.67,77.33l12.19-38.71" transform="translate(-2.96 1.97)"/><path class="cls-15" d="M527.66-1.88" transform="translate(-2.96 1.97)"/><path class="cls-15" d="M489.46,77.77l17.11-35.68" transform="translate(-2.96 1.97)"/><path class="cls-15" d="M547.61-1.88" transform="translate(-2.96 1.97)"/><path class="cls-15" d="M493.44,78.39,514,47.91" transform="translate(-2.96 1.97)"/><path class="cls-15" d="M550.88,21.76" transform="translate(-2.96 1.97)"/><path class="cls-15" d="M497.69,79.26l22.19-24" transform="translate(-2.96 1.97)"/><path class="cls-15" d="M550.88,42.61" transform="translate(-2.96 1.97)"/><path class="cls-15" d="M502.31,80.45l23.09-18" transform="translate(-2.96 1.97)"/><path class="cls-15" d="M550.88,59.2" transform="translate(-2.96 1.97)"/><path class="cls-15" d="M507.49,82.08l25-13.19" transform="translate(-2.96 1.97)"/><path class="cls-15" d="M513.49,84.41l37.39-11" transform="translate(-2.96 1.97)"/><path class="cls-15" d="M520.9,88l30-1.48" transform="translate(-2.96 1.97)"/><path class="cls-15" d="M401.16,81" transform="translate(-2.96 1.97)"/><path class="cls-15" d="M436.94,86.07,428.7,84.9l-.21,0" transform="translate(-2.96 1.97)"/><path class="cls-15" d="M401.16,66.78" transform="translate(-2.96 1.97)"/><path class="cls-15" d="M443.91,83.07l-13-4.95" transform="translate(-2.96 1.97)"/><path class="cls-15" d="M401.16,51" transform="translate(-2.96 1.97)"/><path class="cls-15" d="M449.67,81.07l-15.32-9.5" transform="translate(-2.96 1.97)"/><path class="cls-15" d="M401.16,32.05" transform="translate(-2.96 1.97)"/><path class="cls-15" d="M454.69,79.67,438.32,65.12" transform="translate(-2.96 1.97)"/><path class="cls-15" d="M401.16,7.53" transform="translate(-2.96 1.97)"/><path class="cls-15" d="M459.2,78.66,443,58.77" transform="translate(-2.96 1.97)"/><path class="cls-15" d="M416.21-1.88" transform="translate(-2.96 1.97)"/><path class="cls-15" d="M463.37,77.94l-15-25.43" transform="translate(-2.96 1.97)"/><path class="cls-15" d="M434.81-1.88" transform="translate(-2.96 1.97)"/><path class="cls-15" d="M467.3,77.44,454.69,46.65" transform="translate(-2.96 1.97)"/><path class="cls-15" d="M451.08-1.88" transform="translate(-2.96 1.97)"/><path class="cls-15" d="M471.07,77.12l-9-35.6" transform="translate(-2.96 1.97)"/><path class="cls-15" d="M466.09-1.88" transform="translate(-2.96 1.97)"/><path class="cls-15" d="M474.73,77l-4.27-39" transform="translate(-2.96 1.97)"/></g><g id="virtual_rays-2" data-name="virtual rays"><path class="cls-16" d="M478.35,76.94l-1.71,60.49" transform="translate(-2.96 1.97)"/><path class="cls-16" d="M482,77.06l-10.12,60.37" transform="translate(-2.96 1.97)"/><path class="cls-16" d="M485.67,77.33l-18.94,60.1" transform="translate(-2.96 1.97)"/><path class="cls-16" d="M489.46,77.77l-28.61,59.66" transform="translate(-2.96 1.97)"/><path class="cls-16" d="M493.44,78.39l-39.83,59" transform="translate(-2.96 1.97)"/><path class="cls-16" d="M497.69,79.26l-53.8,58.16" transform="translate(-2.96 1.97)"/><path class="cls-16" d="M502.31,80.45l-73.15,57" transform="translate(-2.96 1.97)"/><path class="cls-16" d="M507.49,82.08l-105,55.35" transform="translate(-2.96 1.97)"/><path class="cls-16" d="M513.49,84.41,401.16,117.52" transform="translate(-2.96 1.97)"/><path class="cls-16" d="M520.9,88,401.16,93.92" transform="translate(-2.96 1.97)"/><path class="cls-16" d="M436.94,86.07l113.94,16.14" transform="translate(-2.96 1.97)"/><path class="cls-16" d="M443.91,83.07l107,40.75" transform="translate(-2.96 1.97)"/><path class="cls-16" d="M449.67,81.07l90.87,56.36" transform="translate(-2.96 1.97)"/><path class="cls-16" d="M454.69,79.67l64.93,57.76" transform="translate(-2.96 1.97)"/><path class="cls-16" d="M459.2,78.66l48,58.77" transform="translate(-2.96 1.97)"/><path class="cls-16" d="M463.37,77.94l35.15,59.49" transform="translate(-2.96 1.97)"/><path class="cls-16" d="M467.3,77.44l24.57,60" transform="translate(-2.96 1.97)"/><path class="cls-16" d="M471.07,77.12l15.25,60.31" transform="translate(-2.96 1.97)"/><path class="cls-16" d="M474.73,77l6.63,60.47" transform="translate(-2.96 1.97)"/></g></g><polyline class="cls-8" points="442.65 56.02 432.23 53.62 436.36 63.19"/><ellipse class="cls-9" cx="441.55" cy="56.81" rx="4.03" ry="0.93" transform="translate(104.31 352.81) rotate(-48.67)"/><polyline class="cls-8" points="433.13 68.64 422.45 68.08 428.18 76.79"/><ellipse class="cls-9" cx="432.57" cy="70.09" rx="4.03" ry="0.93" transform="translate(144.94 405.22) rotate(-58.69)"/><polyline class="cls-8" points="455.48 44.59 445.82 40 447.78 50.23"/><ellipse class="cls-9" cx="453.88" cy="44.44" rx="4.03" ry="0.93" transform="translate(58.48 278.74) rotate(-36.22)"/><polyline class="cls-8" points="491 38.69 487.11 28.73 481.53 37.53"/><ellipse class="cls-9" cx="489.39" cy="34.92" rx="0.93" ry="4.03" transform="translate(392.13 518.38) rotate(-83)"/><polyline class="cls-8" points="508.53 46.09 509.45 35.43 500.56 40.85"/><ellipse class="cls-9" cx="508.19" cy="40.48" rx="0.93" ry="4.03" transform="translate(192.43 445.01) rotate(-56.71)"/><polyline class="cls-8" points="520.58 59.87 525.07 50.16 514.86 52.23"/><ellipse class="cls-9" cx="521.68" cy="53.35" rx="0.93" ry="4.03" transform="translate(69.26 325.49) rotate(-36.85)"/><polyline class="cls-8" points="472.19 37.47 464.91 29.63 462.95 39.86"/><ellipse class="cls-9" cx="470.24" cy="35.5" rx="4.03" ry="0.93" transform="translate(3.12 120.81) rotate(-14.5)"/><path class="cls-12" d="M446.5,115.13a58.89,58.89,0,0,1,20.95-.93c13.48,1.92,24,9.17,33.84,2.56s3-11,3-11" transform="translate(-2.96 1.97)"/><polygon class="cls-10" points="444.86 119.41 440.07 118.03 443.66 114.58 444.86 119.41"/><path class="cls-12" d="M513,75.86C509,74,501.41,72,492,77.57c-5.2,3.08-15.46,8.78-21.26,9.13a88,88,0,0,1-21.92-1.78" transform="translate(-2.96 1.97)"/><polygon class="cls-10" points="510.66 75.37 513.14 79.7 508.15 79.68 510.66 75.37"/><path class="cls-12" d="M489.65,100.49s-16.07,18.43-11.88-3.15C480,85.86,486.19,86.47,490,88.09" transform="translate(-2.96 1.97)"/><polygon class="cls-10" points="485.13 91.96 490.11 91.86 487.54 87.59 485.13 91.96"/><path class="cls-19" d="M430.46,78.56c9.8-21.12,28.55-42.25,48.9-42.25,34.9,0,35.37,14.75,50.28,30.7" transform="translate(-2.96 1.97)"/><polygon class="cls-9" points="524.4 70.18 529.19 71.54 527.97 66.71 524.4 70.18"/><circle class="cls-7" cx="477.44" cy="17.93" r="2.96"/><path id="reflector-2" data-name="reflector" class="cls-17" d="M434,87.57a92.5,92.5,0,0,1,89.59,1.9" transform="translate(-2.96 1.97)"/></g><g id="legend"><text class="cls-20" transform="translate(123.09 145.03)">Camera / <tspan class="cls-21" x="30.73" y="0">V</tspan><tspan x="35.27" y="0">iew Ray</tspan></text><line class="cls-22" x1="98.11" y1="143.04" x2="117.95" y2="143.04"/><text class="cls-20" transform="translate(53.09 145.03)">Reflector</text><line class="cls-23" x1="28.11" y1="143.04" x2="47.95" y2="143.04"/><text class="cls-20" transform="translate(225.09 145.03)">Refl. Point / Refl. Ray</text><line class="cls-24" x1="200.11" y1="143.04" x2="219.95" y2="143.04"/><text class="cls-20" transform="translate(331.09 145.03)"><tspan class="cls-21">V</tspan><tspan x="4.54" y="0">irtual Refl. Ray</tspan></text><line class="cls-25" x1="306.11" y1="143.04" x2="325.95" y2="143.04"/><text class="cls-20" transform="translate(421.09 145.03)"><tspan class="cls-21">V</tspan><tspan x="4.54" y="0">irtual Point / Catacaustic</tspan></text><line class="cls-26" x1="396.11" y1="143.04" x2="415.95" y2="143.04"/><rect class="cls-27" x="18.98" y="136.56" width="490.8" height="12.13"/><path d="M110.32,117.38l0-.37.58-.08,1.2-.23c.12,0,.14,0,.14.11v.58l.2-.19a1.73,1.73,0,0,1,1.09-.48,1.7,1.7,0,0,1,1.48.75,2.77,2.77,0,0,1-.8,3.83,2.07,2.07,0,0,1-1.92.15h0v1.69a.39.39,0,0,0,.3.43,2.8,2.8,0,0,0,.31.09c.06,0,.09,0,.09.12V124h-2.5c-.1,0-.13,0-.12-.13,0-.25,0-.21.22-.27h0c.39-.09.47-.19.47-.59v-5a2.6,2.6,0,0,0,0-.4c0-.16-.09-.2-.25-.22Zm1.9,1.93v1.41a.24.24,0,0,0,0,.13.94.94,0,0,0,1.4,0,1.59,1.59,0,0,0,.4-.77,4,4,0,0,0,0-1.69,1.77,1.77,0,0,0-.29-.76.74.74,0,0,0-.89-.28,1.79,1.79,0,0,0-.65.44.22.22,0,0,0-.06.14Z" transform="translate(-2.96 1.97)"/><path d="M112.93,20.55v2.1a.54.54,0,0,0,.55.61l.29,0c.07,0,.1,0,.11.12,0,.26,0,.26-.26.26q-1.35,0-2.7,0c-.11,0-.15,0-.13-.13v-.07c0-.15,0-.17.17-.19l.34-.07a.41.41,0,0,0,.31-.41V17.48a1.23,1.23,0,0,0,0-.27.34.34,0,0,0-.36-.29l-.33,0c-.08,0-.11,0-.11-.12,0-.25,0-.24.23-.25l2.55-.08a3.7,3.7,0,0,1,1.58.26,1.68,1.68,0,0,1,1.13,1.39A2.05,2.05,0,0,1,115,20.3a4,4,0,0,1-1.74.27Zm0-.42c.26,0,.49,0,.72,0a1.24,1.24,0,0,0,1.19-.93,2.63,2.63,0,0,0,0-1.42,1.1,1.1,0,0,0-.76-.81,1.47,1.47,0,0,0-.75,0,.39.39,0,0,0-.38.37,2.28,2.28,0,0,0,0,.26v2.58Z" transform="translate(-2.96 1.97)"/><path d="M259.93,21.55v2.1a.54.54,0,0,0,.55.61l.29,0c.07,0,.1,0,.11.12,0,.26,0,.26-.26.26q-1.35,0-2.7,0c-.11,0-.15,0-.13-.13v-.07c0-.15,0-.17.17-.19l.34-.07a.41.41,0,0,0,.31-.41V18.48a1.23,1.23,0,0,0,0-.27.34.34,0,0,0-.36-.29l-.33,0c-.08,0-.11,0-.11-.12,0-.25,0-.24.23-.25l2.55-.08a3.7,3.7,0,0,1,1.58.26,1.68,1.68,0,0,1,1.13,1.39A2.05,2.05,0,0,1,262,21.3a4,4,0,0,1-1.74.27Zm0-.42c.26,0,.49,0,.72,0a1.24,1.24,0,0,0,1.19-.93,2.63,2.63,0,0,0,0-1.42,1.1,1.1,0,0,0-.76-.81,1.47,1.47,0,0,0-.75,0,.39.39,0,0,0-.38.37,2.28,2.28,0,0,0,0,.26v2.58Z" transform="translate(-2.96 1.97)"/><path d="M344.64,11v2.1a.54.54,0,0,0,.55.61l.29,0c.07,0,.1,0,.1.12,0,.26,0,.26-.25.26h-2.71c-.1,0-.14,0-.13-.13s0,0,0-.07,0-.17.18-.19l.33-.07a.43.43,0,0,0,.32-.41V7.93a1.24,1.24,0,0,0,0-.27.35.35,0,0,0-.35-.3l-.34,0c-.08,0-.11,0-.11-.12,0-.25,0-.24.24-.25l2.55-.08a3.73,3.73,0,0,1,1.58.26A1.69,1.69,0,0,1,348,8.54a2.08,2.08,0,0,1-1.24,2.21A4,4,0,0,1,345,11Zm0-.42h.72a1.25,1.25,0,0,0,1.19-.93,2.54,2.54,0,0,0,0-1.42,1.08,1.08,0,0,0-.75-.81,1.51,1.51,0,0,0-.76,0,.4.4,0,0,0-.38.37,2.26,2.26,0,0,0,0,.26v2.58Z" transform="translate(-2.96 1.97)"/><path d="M473.64,11v2.1a.54.54,0,0,0,.55.61l.29,0c.07,0,.1,0,.1.12,0,.26,0,.26-.25.26h-2.71c-.1,0-.14,0-.13-.13s0,0,0-.07,0-.17.18-.19l.33-.07a.43.43,0,0,0,.32-.41V7.93a1.24,1.24,0,0,0,0-.27.35.35,0,0,0-.35-.3l-.34,0c-.08,0-.11,0-.11-.12,0-.25,0-.24.24-.25l2.55-.08a3.73,3.73,0,0,1,1.58.26A1.69,1.69,0,0,1,477,8.54a2.08,2.08,0,0,1-1.24,2.21A4,4,0,0,1,474,11Zm0-.42h.72a1.25,1.25,0,0,0,1.19-.93,2.54,2.54,0,0,0,0-1.42,1.08,1.08,0,0,0-.75-.81,1.51,1.51,0,0,0-.76,0,.4.4,0,0,0-.38.37,2.26,2.26,0,0,0,0,.26v2.58Z" transform="translate(-2.96 1.97)"/><path d="M214.17,94.33l0-.36.56-.08,1.19-.23c.12,0,.14,0,.14.11s0,.38,0,.58l.08-.09a1.86,1.86,0,0,1,1-.57,1.53,1.53,0,0,1,1.29.4,2.11,2.11,0,0,1,.71,1.37,2.85,2.85,0,0,1-.47,2.12,2.14,2.14,0,0,1-1.55,1,1.66,1.66,0,0,1-1-.13l-.06,0v1.69a.38.38,0,0,0,.3.44l.29.09c.07,0,.1,0,.09.11V101h-2.44c-.1,0-.15,0-.13-.13v0c0-.17,0-.17.17-.21l.26-.07a.39.39,0,0,0,.27-.39V95a2.28,2.28,0,0,0,0-.45.2.2,0,0,0-.22-.19ZM216,96.27v1.4a.16.16,0,0,0,0,.12.88.88,0,0,0,1.24.12,1.47,1.47,0,0,0,.53-.89,4.23,4.23,0,0,0,0-1.7,1.73,1.73,0,0,0-.26-.73.71.71,0,0,0-.91-.29,1.86,1.86,0,0,0-.6.4.23.23,0,0,0-.07.19Z" transform="translate(-2.96 1.97)"/><path d="M220.24,96.36l-.15-.27.25-.12,1.33-.79a2.64,2.64,0,0,1,.38-.18c.12,0,.19,0,.19.14l0,4.15v.12c0,.24.11.34.35.36l.25,0c.12,0,.11.09.11.16s0,.13-.11.13h-2.28c-.11,0-.12-.06-.12-.13s0-.16.11-.17a1.93,1.93,0,0,0,.42,0,.37.37,0,0,0,.35-.43V96.49a1.51,1.51,0,0,0,0-.3c0-.14-.06-.18-.19-.14l-.73.26Z" transform="translate(-2.96 1.97)"/><path d="M227.52,107.22c.13-.11.26-.23.41-.34a1.6,1.6,0,0,1,2.23.34,2.53,2.53,0,0,1,.51,1.55,2.66,2.66,0,0,1-1,2.21,2,2,0,0,1-2.11.32h0V113a.38.38,0,0,0,.29.42l.29.08a.13.13,0,0,1,.11.14c0,.24,0,.24-.24.24-.73,0-1.47,0-2.2,0-.11,0-.14,0-.14-.13,0-.27,0-.21.2-.26h0c.38-.09.47-.19.47-.59,0-1.66,0-3.32,0-5a3.37,3.37,0,0,0,0-.44c0-.14-.09-.18-.24-.19l-.33,0c-.06,0-.08,0-.08-.08v-.29c.13,0,.26,0,.39-.06l1.35-.25c.11,0,.13,0,.13.1Zm0,1.94v1.4a.25.25,0,0,0,0,.13.89.89,0,0,0,1.27.09,1.43,1.43,0,0,0,.5-.87,4.18,4.18,0,0,0,0-1.69,1.83,1.83,0,0,0-.27-.75.73.73,0,0,0-.91-.28,1.67,1.67,0,0,0-.6.42.26.26,0,0,0-.07.16Z" transform="translate(-2.96 1.97)"/><path d="M232.32,112.31h.34c.34,0,.68,0,1,0a.45.45,0,0,0,.45-.29q.08-.19.15-.42l.33.07-.18,1.29h-3a1.43,1.43,0,0,1,.17-.71,4.61,4.61,0,0,1,.69-.89c.28-.32.58-.61.86-.93a1.84,1.84,0,0,0,.35-1.69l0-.07a.67.67,0,0,0-1.16-.22.41.41,0,0,0-.11.42.93.93,0,0,1,0,.13.36.36,0,0,1-.3.44.4.4,0,0,1-.5-.32.72.72,0,0,1,.05-.32,1.37,1.37,0,0,1,1-.86,2.2,2.2,0,0,1,1.27,0,1.21,1.21,0,0,1,.69,1.7,3.08,3.08,0,0,1-.61.82c-.37.38-.76.74-1.13,1.12a3.43,3.43,0,0,0-.32.43A.81.81,0,0,0,232.32,112.31Z" transform="translate(-2.96 1.97)"/><path d="M14.07,34.41h0c.23.24.25.14.05.44a1.86,1.86,0,0,1-1.59.86,2.92,2.92,0,0,1-1.2-.2A2,2,0,0,1,10.15,34a3.06,3.06,0,0,1,.43-2.41,2.3,2.3,0,0,1,2.27-1.05,2.21,2.21,0,0,1,.87.23,1,1,0,0,1,.61,1,.57.57,0,0,1-.55.58.62.62,0,0,1-.66-.52,2.07,2.07,0,0,0-.1-.43.58.58,0,0,0-.87-.31,1.11,1.11,0,0,0-.45.46,2.4,2.4,0,0,0-.3,1,2.89,2.89,0,0,0,.17,1.46,2.55,2.55,0,0,0,.35.6,1.11,1.11,0,0,0,1.55.23C13.68,34.76,13.86,34.58,14.07,34.41Z" transform="translate(-2.96 1.97)"/><path d="M15.32,33.38l-.15-.28.08,0,1.58-.92A2.58,2.58,0,0,1,17.2,32c.16-.07.23,0,.23.16l0,4.39v.1c0,.24.1.35.34.38L18,37c.14,0,.12.09.12.18s0,.13-.12.13H15.63c-.11,0-.12,0-.13-.14s0-.16.13-.17a4.46,4.46,0,0,0,.51-.07.35.35,0,0,0,.29-.4V33.4a.85.85,0,0,0,0-.23c0-.12-.07-.15-.18-.12l-.79.28Z" transform="translate(-2.96 1.97)"/><path d="M68.18,12.17h0c.25.25.26.14.06.46a2,2,0,0,1-1.5.88,3.24,3.24,0,0,1-1.38-.19,2,2,0,0,1-1.26-1.56,3.13,3.13,0,0,1,.46-2.52,2.38,2.38,0,0,1,2.34-1.07,2,2,0,0,1,.9.24,1,1,0,0,1,.64,1,.57.57,0,0,1-.56.59.65.65,0,0,1-.7-.53,1.92,1.92,0,0,0-.11-.46.6.6,0,0,0-.87-.33,1.22,1.22,0,0,0-.49.49,2.69,2.69,0,0,0-.32,1.11,3.38,3.38,0,0,0,.18,1.51,2.1,2.1,0,0,0,.43.7,1.13,1.13,0,0,0,1.54.16C67.77,12.54,68,12.35,68.18,12.17Z" transform="translate(-2.96 1.97)"/><path d="M69.2,15.17a1.59,1.59,0,0,1,.24-.86,6,6,0,0,1,.84-1.05c.28-.3.57-.59.83-.91a2,2,0,0,0,.37-1.77.28.28,0,0,0,0-.12.74.74,0,0,0-1.29-.22.47.47,0,0,0-.08.51.38.38,0,0,1-.19.51.5.5,0,0,1-.61-.14.51.51,0,0,1,0-.4A1.38,1.38,0,0,1,70,9.78a2.18,2.18,0,0,1,2,.05,1.18,1.18,0,0,1,.65,1.22,1.55,1.55,0,0,1-.45,1c-.4.44-.83.86-1.24,1.29-.2.21-.41.42-.59.64a.7.7,0,0,0-.2.45h1.47a.49.49,0,0,0,.5-.32c.06-.15.11-.3.17-.46l.36.08-.19,1.42Z" transform="translate(-2.96 1.97)"/><path d="M158.07,34.41h0c.23.24.25.14,0,.44a1.86,1.86,0,0,1-1.59.86,2.92,2.92,0,0,1-1.2-.2A2,2,0,0,1,154.15,34a3.06,3.06,0,0,1,.43-2.41,2.3,2.3,0,0,1,2.27-1.05,2.21,2.21,0,0,1,.87.23,1,1,0,0,1,.61,1,.57.57,0,0,1-.55.58.62.62,0,0,1-.66-.52,2.07,2.07,0,0,0-.1-.43.58.58,0,0,0-.87-.31,1.11,1.11,0,0,0-.45.46,2.4,2.4,0,0,0-.3,1,2.89,2.89,0,0,0,.17,1.46,2.55,2.55,0,0,0,.35.6,1.11,1.11,0,0,0,1.55.23C157.68,34.76,157.86,34.58,158.07,34.41Z" transform="translate(-2.96 1.97)"/><path d="M159.32,33.38l-.15-.28.08,0,1.58-.92a2.58,2.58,0,0,1,.37-.19c.16-.07.23,0,.23.16l0,4.39v.1c0,.24.1.35.34.38l.28,0c.14,0,.12.09.12.18s0,.13-.12.13h-2.39c-.11,0-.12,0-.13-.14s0-.16.13-.17a4.46,4.46,0,0,0,.51-.07.35.35,0,0,0,.29-.4V33.4a.85.85,0,0,0,0-.23c0-.12-.07-.15-.18-.12l-.79.28Z" transform="translate(-2.96 1.97)"/><path d="M212.18,12.17h0c.25.25.26.14.06.46a2,2,0,0,1-1.5.88,3.24,3.24,0,0,1-1.38-.19,2,2,0,0,1-1.26-1.56,3.13,3.13,0,0,1,.46-2.52,2.38,2.38,0,0,1,2.34-1.07,2,2,0,0,1,.9.24,1,1,0,0,1,.64,1,.57.57,0,0,1-.56.59.65.65,0,0,1-.7-.53,1.92,1.92,0,0,0-.11-.46.6.6,0,0,0-.87-.33,1.22,1.22,0,0,0-.49.49,2.69,2.69,0,0,0-.32,1.11,3.38,3.38,0,0,0,.18,1.51,2.1,2.1,0,0,0,.43.7,1.13,1.13,0,0,0,1.54.16C211.77,12.54,212,12.35,212.18,12.17Z" transform="translate(-2.96 1.97)"/><path d="M213.2,15.17a1.59,1.59,0,0,1,.24-.86,6,6,0,0,1,.84-1.05c.28-.3.57-.59.83-.91a2,2,0,0,0,.37-1.77.28.28,0,0,0,0-.12.74.74,0,0,0-1.29-.22.47.47,0,0,0-.08.51.38.38,0,0,1-.19.51.5.5,0,0,1-.61-.14.51.51,0,0,1,0-.4,1.38,1.38,0,0,1,.79-.94,2.18,2.18,0,0,1,2,.05,1.18,1.18,0,0,1,.65,1.22,1.55,1.55,0,0,1-.45,1c-.4.44-.83.86-1.24,1.29-.2.21-.41.42-.59.64a.7.7,0,0,0-.2.45h1.47a.49.49,0,0,0,.5-.32c.06-.15.11-.3.17-.46l.36.08-.19,1.42Z" transform="translate(-2.96 1.97)"/></g></svg>