<svg xmlns="http://www.w3.org/2000/svg" viewBox="0 0 124.72 124.72"><defs><style>.cls-1,.cls-2,.cls-3,.cls-4,.cls-5{fill:none;stroke-miterlimit:10;}.cls-1{stroke:#fab613;}.cls-1,.cls-2,.cls-4{stroke-width:0.5px;}.cls-2{stroke:#1f9ebc;}.cls-3{stroke:#f18413;stroke-width:1.25px;}.cls-4{stroke:#8ecae6;}.cls-5{stroke:#1d1d1b;}.cls-6{fill:#8ecae6;}.cls-7{fill:#f18413;}.cls-8{fill:#1f9ebc;}</style></defs><g id="b"><line class="cls-1" x1="58.45" y1="74.3" x2="77.41" y2="89.86"/><line class="cls-2" x1="27.15" y1="48.63" x2="58.45" y2="74.3"/><path class="cls-3" d="M28.27,82s15.54-1.36,25.88,0c13.67,1.8,21.06,6.26,27,10.53C93.32,101.31,91.53,111,91.53,111s2.51-9.84,19.41-14.81"/><polyline class="cls-2" points="86.2 22.36 74.45 7.14 69.29 25.14"/><line class="cls-2" x1="77.56" y1="21.28" x2="85.81" y2="75.4"/><line class="cls-1" x1="85.81" y1="75.4" x2="89.91" y2="102.27"/><line class="cls-4" x1="86.02" y1="75.44" x2="106.49" y2="28.11"/><line class="cls-4" x1="58.45" y1="74.3" x2="106.49" y2="28.11"/><path class="cls-5" d="M21.67,80.92A151,151,0,0,1,66.81,74.3c19,0,36.72,3.24,51.44,8.8"/><circle class="cls-6" cx="106.49" cy="28.11" r="2.96"/><circle class="cls-7" cx="77.41" cy="89.86" r="2.96"/><circle class="cls-7" cx="89.91" cy="102.27" r="2.96"/><polyline class="cls-2" points="33.87 42.89 14.77 40.66 24.04 56.93"/><ellipse class="cls-8" cx="27.15" cy="48.63" rx="7.24" ry="1.67" transform="translate(-28.25 42.98) rotate(-55.01)"/><ellipse class="cls-8" cx="77.41" cy="21.56" rx="7.24" ry="1.67" transform="translate(-2.47 12.86) rotate(-9.35)"/></g><g id="legend"><path d="M112.28,21.25v2.1a.54.54,0,0,0,.55.61l.28,0c.08,0,.11,0,.11.12,0,.26,0,.26-.25.26-.9,0-1.81,0-2.71,0-.1,0-.14,0-.13-.13s0,0,0-.07,0-.17.18-.19l.33-.07a.41.41,0,0,0,.31-.41.66.66,0,0,0,0-.14V18.18a1.24,1.24,0,0,0,0-.27.35.35,0,0,0-.35-.3l-.34,0c-.08,0-.11,0-.11-.12,0-.25,0-.24.24-.25l2.55-.08a3.73,3.73,0,0,1,1.58.26,1.69,1.69,0,0,1,1.13,1.39A2.08,2.08,0,0,1,114.39,21a4,4,0,0,1-1.74.27Zm0-.42H113a1.21,1.21,0,0,0,1.18-.92,2.58,2.58,0,0,0,0-1.43,1.09,1.09,0,0,0-.75-.8,1.63,1.63,0,0,0-.76-.06.42.42,0,0,0-.38.38,2.26,2.26,0,0,0,0,.26v2.58Z"/><path d="M66.52,94l0-.36c.19,0,.38,0,.56-.09l1.19-.22c.11,0,.13,0,.13.11v.58l.09-.09a1.86,1.86,0,0,1,1-.57,1.58,1.58,0,0,1,1.3.39,2.18,2.18,0,0,1,.71,1.38A2.83,2.83,0,0,1,71,97.27a2.12,2.12,0,0,1-1.55,1,1.83,1.83,0,0,1-1-.13l0,0s0,.07,0,.1v1.59a.39.39,0,0,0,.3.44l.3.08a.11.11,0,0,1,.09.12v.25H66.62c-.1,0-.14,0-.12-.13v0c0-.17,0-.17.16-.21l.27-.08a.38.38,0,0,0,.27-.38V94.71a3.42,3.42,0,0,0,0-.45c0-.13-.09-.18-.23-.19ZM68.38,96v1.4a.25.25,0,0,0,0,.12.88.88,0,0,0,1.24.12,1.46,1.46,0,0,0,.54-.89,4.23,4.23,0,0,0,0-1.7,1.88,1.88,0,0,0-.26-.73.72.72,0,0,0-.91-.29,1.75,1.75,0,0,0-.6.4.24.24,0,0,0-.08.19C68.39,95.05,68.38,95.51,68.38,96Z"/><path d="M72.59,96.06l-.15-.27.24-.12L74,94.88a2.64,2.64,0,0,1,.38-.18c.12,0,.18,0,.18.14,0,1.38,0,2.77,0,4.15a.24.24,0,0,0,0,.12c0,.24.1.34.34.36l.26,0c.12,0,.1.09.1.16s0,.13-.11.13c-.76,0-1.52,0-2.28,0-.11,0-.11-.06-.11-.13s0-.16.11-.17a3,3,0,0,0,.42,0,.37.37,0,0,0,.35-.43V96.19c0-.1,0-.2,0-.3s-.06-.18-.19-.14L72.7,96Z"/><path d="M79.86,106.92c.14-.11.27-.23.42-.34a1.59,1.59,0,0,1,2.22.34,2.41,2.41,0,0,1,.51,1.55,2.68,2.68,0,0,1-1,2.21,2,2,0,0,1-2.12.32h0v.08c0,.54,0,1.07,0,1.61a.38.38,0,0,0,.28.42l.29.08a.12.12,0,0,1,.11.14c0,.24,0,.24-.23.24H78.11c-.1,0-.14,0-.13-.13,0-.27,0-.21.2-.27h0c.39-.09.47-.19.47-.59v-5a3.42,3.42,0,0,0,0-.44c0-.14-.09-.18-.23-.2l-.34,0s-.08,0-.08-.08a2.8,2.8,0,0,0,0-.29c.13,0,.27,0,.4-.06l1.34-.25c.11,0,.13,0,.13.1Zm0,1.94c0,.47,0,.93,0,1.4a.18.18,0,0,0,0,.13.89.89,0,0,0,1.27.09,1.48,1.48,0,0,0,.5-.87,4.18,4.18,0,0,0,0-1.69,1.7,1.7,0,0,0-.27-.75.72.72,0,0,0-.9-.28,1.63,1.63,0,0,0-.61.42.31.31,0,0,0-.06.16C79.86,107.93,79.87,108.39,79.87,108.86Z"/><path d="M84.66,112H85c.34,0,.68,0,1,0a.44.44,0,0,0,.45-.29c.06-.14.1-.28.15-.42l.34.07-.18,1.29h-3A1.25,1.25,0,0,1,84,112a4.56,4.56,0,0,1,.68-.89c.29-.32.59-.61.86-.93a1.81,1.81,0,0,0,.35-1.69.25.25,0,0,0,0-.07.67.67,0,0,0-1.16-.22.39.39,0,0,0-.11.42.79.79,0,0,1,0,.13.35.35,0,0,1-.29.44.41.41,0,0,1-.51-.32.89.89,0,0,1,.05-.32,1.37,1.37,0,0,1,1-.86,2.23,2.23,0,0,1,1.28,0,1.22,1.22,0,0,1,.69,1.7,3.08,3.08,0,0,1-.61.82c-.38.38-.76.74-1.13,1.12a2.73,2.73,0,0,0-.33.43A2.3,2.3,0,0,0,84.66,112Z"/><path d="M10.41,34.11h0c.24.24.26.14.06.44a1.87,1.87,0,0,1-1.59.86,3.06,3.06,0,0,1-1.2-.2A1.93,1.93,0,0,1,6.5,33.72a3,3,0,0,1,.43-2.41,2.3,2.3,0,0,1,2.27-1,2.16,2.16,0,0,1,.86.23,1,1,0,0,1,.62,1,.58.58,0,0,1-.55.58.63.63,0,0,1-.66-.52,3,3,0,0,0-.11-.43.57.57,0,0,0-.86-.31,1.08,1.08,0,0,0-.46.46,2.71,2.71,0,0,0-.3,1.05,3,3,0,0,0,.18,1.46,2.25,2.25,0,0,0,.35.6,1.1,1.1,0,0,0,1.55.23C10,34.46,10.21,34.28,10.41,34.11Z"/><path d="M11.67,33.08l-.16-.28.08,0,1.59-.91a3.13,3.13,0,0,1,.36-.19c.17-.07.23,0,.23.16,0,1.46,0,2.93,0,4.39v.1a.33.33,0,0,0,.34.38,1.27,1.27,0,0,0,.28,0c.13,0,.12.09.12.17s0,.14-.13.14c-.79,0-1.59,0-2.38,0-.11,0-.13-.05-.13-.14s0-.16.13-.17a4.29,4.29,0,0,0,.5-.07.35.35,0,0,0,.29-.4V33.1a1.64,1.64,0,0,0,0-.23c0-.12-.07-.15-.18-.12l-.8.28Z"/><path d="M64.52,11.87h0c.25.25.27.14.06.46a1.89,1.89,0,0,1-1.5.87A3,3,0,0,1,61.72,13a2,2,0,0,1-1.26-1.56,3.15,3.15,0,0,1,.45-2.52,2.43,2.43,0,0,1,2.35-1.08,2.36,2.36,0,0,1,.9.24,1.1,1.1,0,0,1,.64,1.05.59.59,0,0,1-.57.59.63.63,0,0,1-.69-.53,2.56,2.56,0,0,0-.11-.46.6.6,0,0,0-.87-.33,1.13,1.13,0,0,0-.5.49,2.67,2.67,0,0,0-.31,1.1,3.27,3.27,0,0,0,.17,1.52,2,2,0,0,0,.44.7,1.12,1.12,0,0,0,1.53.16A7.54,7.54,0,0,0,64.52,11.87Z"/><path d="M65.54,14.87a1.68,1.68,0,0,1,.24-.86,7.16,7.16,0,0,1,.84-1c.28-.3.58-.59.84-.91a2,2,0,0,0,.37-1.77s0-.08,0-.12a.74.74,0,0,0-1.3-.22.49.49,0,0,0-.07.51.39.39,0,0,1-.19.51.49.49,0,0,1-.61-.15.45.45,0,0,1-.05-.39,1.37,1.37,0,0,1,.8-.94,2.18,2.18,0,0,1,2,0A1.21,1.21,0,0,1,69,10.75a1.65,1.65,0,0,1-.45,1c-.4.44-.83.86-1.25,1.29l-.59.63a.8.8,0,0,0-.19.46H68a.49.49,0,0,0,.5-.32c0-.15.1-.3.16-.46l.37.08-.2,1.42Z"/></g></svg>